# xmcd CD database file
#
# Track frame offsets:
#	150
#	29247
#	70413
#	107577
#	153023
#	185869
#	220559
#
# Disc length: 3473 seconds
#
# Revision: 0
# Processed by: cddbd v1.5.1PL2 Copyright (c) Steve Scherf et al.
# Submitted via: CDex 1.51
#
DISCID=600d8f07
DTITLE=Double Standards - Volume Two
DYEAR=2005
DGENRE=Jazz
TTITLE0=Solar
TTITLE1=Body and soul
TTITLE2=Afro blue
TTITLE3=Soul eyes
TTITLE4=Old folks
TTITLE5=Nefertiti
TTITLE6=Peace
EXTD=YEAR: 2005
EXTT0=
EXTT1=
EXTT2=
EXTT3=
EXTT4=
EXTT5=
EXTT6=
PLAYORDER=
